<?xml version="1.0" encoding="utf-8"?>
<svg version="1.1" xmlns:xlink="http://www.w3.org/1999/xlink" width="15px" height="15px" xmlns="http://www.w3.org/2000/svg">
  <g transform="matrix(1 0 0 1 -22 -332 )">
    <path d="M 29.5 332  C 33.7 332  37 335.3  37 339.5  C 37 343.7  33.7 347  29.5 347  C 25.3 347  22 343.7  22 339.5  C 22 335.3  25.3 332  29.5 332  Z " fill-rule="nonzero" fill="#ffffff" stroke="none" />
    <path d="M 29.5 332.5  C 33.42 332.5  36.5 335.58  36.5 339.5  C 36.5 343.42  33.42 346.5  29.5 346.5  C 25.58 346.5  22.5 343.42  22.5 339.5  C 22.5 335.58  25.58 332.5  29.5 332.5  Z " stroke-width="1" stroke="#797979" fill="none" />
  </g>
</svg>