<?xml version="1.0" encoding="utf-8"?>
<svg version="1.1" xmlns:xlink="http://www.w3.org/1999/xlink" width="16px" height="16px" xmlns="http://www.w3.org/2000/svg">
  <g transform="matrix(1 0 0 1 -225 -669 )">
    <path d="M 6.75 15.125  L 13.75 8  C 16.25 5.5  14.875 2.875  13.75 1.875  C 12.625 0.75  10 -0.625  7.5 1.875  L 1.375 8  C -0.375 9.75  0.625 11.625  1.375 12.375  C 2.125 13.125  4 14.125  5.75 12.375  L 11.875 6.25  C 12.375 5.75  12.5 5.25  12.5 5  C 12.5 4.25  12 3.75  11.875 3.625  C 11.375 3.125  10.25 2.625  9.25 3.625  L 3.125 9.75  C 2.875 10  2.875 10.375  3.125 10.625  C 3.375 10.875  3.75 10.875  4 10.625  L 10.125 4.5  C 10.5 4.125  10.75 4.25  11 4.5  C 11 4.5  11.5 4.875  11 5.375  L 4.875 11.5  C 3.625 12.75  2.5 11.75  2.25 11.5  C 2 11.25  0.999999999999998 10.125  2.25 8.875  L 8.375 2.75  C 10.5 0.625000000000001  12.625 2.5  12.75 2.75  C 13 3  14.875 5  12.75 7.125  L 5.875 14.25  C 5.625 14.5  5.625 14.875  5.875 15.125  C 6.125 15.375  6.5 15.375  6.75 15.125  Z " fill-rule="nonzero" fill="#aaaaaa" stroke="none" transform="matrix(1 0 0 1 225 669 )" />
  </g>
</svg>