<?xml version="1.0" encoding="utf-8"?>
<svg version="1.1" xmlns:xlink="http://www.w3.org/1999/xlink" width="12px" height="12px" viewBox="152 1592.5  12 12" xmlns="http://www.w3.org/2000/svg">
  <path d="M 158 1592.5  C 161.36 1592.5  164 1595.14  164 1598.5  C 164 1601.86  161.36 1604.5  158 1604.5  C 154.64 1604.5  152 1601.86  152 1598.5  C 152 1595.14  154.64 1592.5  158 1592.5  Z " fill-rule="nonzero" fill="#ffffff" stroke="none" />
  <path d="M 158 1593  C 161.08 1593  163.5 1595.42  163.5 1598.5  C 163.5 1601.58  161.08 1604  158 1604  C 154.92 1604  152.5 1601.58  152.5 1598.5  C 152.5 1595.42  154.92 1593  158 1593  Z " stroke-width="1" stroke="#797979" fill="none" />
  <path d="M 158 1601.5  C 156.32 1601.5  155 1600.18  155 1598.5  C 155 1596.82  156.32 1595.5  158 1595.5  C 159.68 1595.5  161 1596.82  161 1598.5  C 161 1600.18  159.68 1601.5  158 1601.5  " fill-rule="nonzero" fill="#797979" stroke="none" />
</svg>