<?xml version="1.0" encoding="utf-8"?>
<svg version="1.1" xmlns:xlink="http://www.w3.org/1999/xlink" width="20px" height="20px" xmlns="http://www.w3.org/2000/svg">
  <g transform="matrix(1 0 0 1 -30 -435 )">
    <path d="M 6.74479166666667 2.1875  L 2.1875 2.1875  L 2.1875 6.74479166666667  C 2.1875 7.13541666666667  1.92708333333333 7.39583333333333  1.53645833333333 7.39583333333333  C 1.14583333333333 7.39583333333333  0.885416666666667 7.13541666666667  0.885416666666667 6.74479166666667  L 0.885416666666667 1.53645833333333  C 0.885416666666667 1.14583333333333  1.14583333333333 0.885416666666667  1.53645833333333 0.885416666666667  L 6.74479166666667 0.885416666666667  C 7.13541666666667 0.885416666666667  7.39583333333333 1.14583333333333  7.39583333333333 1.53645833333333  C 7.39583333333333 1.92708333333333  7.13541666666667 2.1875  6.74479166666667 2.1875  Z M 2.1875 13.2552083333333  L 2.1875 17.8125  L 6.74479166666667 17.8125  C 7.13541666666667 17.8125  7.39583333333333 18.0729166666667  7.39583333333333 18.4635416666667  C 7.39583333333333 18.8541666666667  7.13541666666667 19.1145833333333  6.74479166666667 19.1145833333333  L 1.53645833333333 19.1145833333333  C 1.14583333333333 19.1145833333333  0.885416666666667 18.8541666666667  0.885416666666667 18.4635416666667  L 0.885416666666667 13.2552083333333  C 0.885416666666667 12.8645833333333  1.14583333333333 12.6041666666667  1.53645833333333 12.6041666666667  C 1.92708333333333 12.6041666666667  2.1875 12.8645833333333  2.1875 13.2552083333333  Z M 17.8125 6.74479166666667  L 17.8125 2.1875  L 13.2552083333333 2.1875  C 12.8645833333333 2.1875  12.6041666666667 1.92708333333333  12.6041666666667 1.53645833333333  C 12.6041666666667 1.14583333333333  12.8645833333333 0.885416666666667  13.2552083333333 0.885416666666667  L 18.4635416666667 0.885416666666667  C 18.8541666666667 0.885416666666667  19.1145833333333 1.14583333333333  19.1145833333333 1.53645833333333  L 19.1145833333333 6.74479166666667  C 19.1145833333333 7.13541666666667  18.8541666666667 7.39583333333333  18.4635416666667 7.39583333333333  C 18.0729166666667 7.39583333333333  17.8125 7.13541666666667  17.8125 6.74479166666667  Z M 13.2552083333333 17.8125  L 17.8125 17.8125  L 17.8125 13.2552083333333  C 17.8125 12.8645833333333  18.0729166666667 12.6041666666667  18.4635416666667 12.6041666666667  C 18.8541666666667 12.6041666666667  19.1145833333333 12.8645833333333  19.1145833333333 13.2552083333333  L 19.1145833333333 18.4635416666667  C 19.1145833333333 18.8541666666667  18.8541666666667 19.1145833333333  18.4635416666667 19.1145833333333  L 13.2552083333333 19.1145833333333  C 12.8645833333333 19.1145833333333  12.6041666666667 18.8541666666667  12.6041666666667 18.4635416666667  C 12.6041666666667 18.0729166666667  12.8645833333333 17.8125  13.2552083333333 17.8125  Z M 4.79166666666667 10  C 4.79166666666667 9.609375  5.05208333333333 9.34895833333333  5.44270833333333 9.34895833333333  L 14.5572916666667 9.34895833333333  C 14.9479166666667 9.34895833333333  15.2083333333333 9.609375  15.2083333333333 10  C 15.2083333333333 10.390625  14.9479166666667 10.6510416666667  14.5572916666667 10.6510416666667  L 5.44270833333333 10.6510416666667  C 5.05208333333333 10.6510416666667  4.79166666666667 10.390625  4.79166666666667 10  Z " fill-rule="nonzero" fill="#7f7f7f" stroke="none" transform="matrix(1 0 0 1 30 435 )" />
  </g>
</svg>