<?xml version="1.0" encoding="utf-8"?>
<svg version="1.1" xmlns:xlink="http://www.w3.org/1999/xlink" width="18px" height="17px" xmlns="http://www.w3.org/2000/svg">
  <g transform="matrix(1 0 0 1 -601 -985 )">
    <path d="M 8.76143973214286 0.200043672360247  C 8.86607142857143 -0.0144361413043493  9.17578125 -0.0144361413043493  9.28250558035714 0.200043672360248  L 11.8250558035714 5.29187694099379  C 11.8669084821429 5.37643148291926  11.9485212053571 5.43417604813665  12.0447823660714 5.44861218944099  L 17.7346540178571 6.26528532608696  C 17.9732142857143 6.30034452639751  18.0673828125 6.58700504658385  17.8957868303571 6.75405182453416  L 13.7774832589286 10.717803765528  C 13.7084263392857 10.7837975543478  13.6770368303571 10.8786636257764  13.6937779017857 10.9714673913043  L 14.6668526785714 16.5706279114907  C 14.7066127232143 16.8036684782609  14.4575892857143 16.9830890916149  14.244140625 16.8717245729814  L 9.15694754464286 14.2299107142857  C 9.07114955357143 14.1866022903727  8.970703125 14.1866022903727  8.88699776785714 14.2299107142857  L 3.79771205357143 16.8717245729814  C 3.58426339285714 16.9830890916149  3.33523995535714 16.8036684782609  3.375 16.5706279114907  L 4.34807477678571 10.9714673913043  C 4.36481584821429 10.8786636257764  4.33342633928571 10.7837975543478  4.26436941964286 10.717803765528  L 0.146065848214286 6.75405182453416  C -0.0255301339285714 6.58906735248447  0.0686383928571428 6.30034452639751  0.307198660714286 6.26528532608696  L 5.9970703125 5.44861218944099  C 6.09123883928571 5.43417604813665  6.1728515625 5.37643148291926  6.216796875 5.29187694099379  L 8.76143973214286 0.200043672360247  Z " fill-rule="nonzero" fill="#aaaaaa" stroke="none" transform="matrix(1 0 0 1 601 985 )" />
  </g>
</svg>