<?xml version="1.0" encoding="utf-8"?>
<svg version="1.1" xmlns:xlink="http://www.w3.org/1999/xlink" width="19px" height="18px" xmlns="http://www.w3.org/2000/svg">
  <g transform="matrix(1 0 0 1 -601 -985 )">
    <path d="M 15.3510520241477 17.7732525887574  C 15.2224343039773 17.8647836538462  15.0727317116477 17.9105491863905  14.9209206321023 17.9105491863905  C 14.8049538352273 17.9105491863905  14.6868785511364 17.8835059171598  14.579345703125 17.8273391272189  L 9.52108487215909 15.1979012573964  L 4.46282404119318 17.8273391272189  C 4.21402254971591 17.9563147189349  3.91883433948864 17.935512204142  3.69111772017046 17.7732525887574  C 3.46340110085227 17.6109929733728  3.35165127840909 17.3405602810651  3.400146484375 17.0680473372781  L 4.36583362926136 11.4950536242604  L 0.271151455965909 7.54881656804734  C 0.0708451704545455 7.35535318047337  -0.000843394886363636 7.07243897928994  0.0856045809659091 6.80824704142012  C 0.172052556818182 6.54613535502959  0.397660688920455 6.3568324704142  0.675981001420454 6.31730769230769  L 6.33305220170455 5.50392936390532  L 8.86323686079546 0.436436760355028  C 8.98763760653409 0.186806582840236  9.23854758522727 0.0328679733727799  9.51897638494318 0.0328679733727799  C 9.79940518465909 0.0328679733727799  10.0503151633523 0.186806582840236  10.1747159090909 0.436436760355028  L 12.7049005681818 5.50392936390532  L 18.3619717684659 6.31730769230769  C 18.6402920809659 6.3568324704142  18.8659002130682 6.54613535502959  18.9523481889205 6.80824704142012  C 19.0387961647727 7.07035872781065  18.9692160866477 7.35535318047337  18.7689098011364 7.54881656804734  L 14.6763361150568 11.4950536242604  L 15.6420232599432 17.0680473372781  C 15.6884099786932 17.3405602810651  15.57666015625 17.6109929733728  15.3510520241477 17.7732525887574  Z M 6.53757546164773 6.35059171597633  L 1.09556995738636 7.13276627218935  L 5.03422407670455 10.9271449704142  C 5.20712002840909 11.0935650887574  5.28513405539773 11.3307137573964  5.24507279829546 11.5657821745562  L 4.31522993607955 16.9245099852071  L 9.17950994318182 14.3949241863905  C 9.39246715198864 14.2846708579882  9.64759410511364 14.2846708579882  9.86055131392045 14.3949241863905  L 14.7248313210227 16.9245099852071  L 13.7949884588068 11.5657821745562  C 13.7549272017045 11.3307137573965  13.8329412286932 11.0935650887574  14.0058371803977 10.9271449704142  L 17.9444912997159 7.13276627218935  L 12.5024857954545 6.35059171597633  C 12.2642267400568 6.3152274408284  12.0575949928977 6.16752958579882  11.9521706321023 5.95534393491124  L 9.52108487215909 1.08131471893491  L 7.087890625 5.95534393491124  C 6.98246626420455 6.16752958579882  6.77583451704546 6.31730769230769  6.53757546164773 6.35059171597633  Z " fill-rule="nonzero" fill="#aaaaaa" stroke="none" transform="matrix(1 0 0 1 601 985 )" />
  </g>
</svg>