<?xml version="1.0" encoding="utf-8"?>
<svg version="1.1" xmlns:xlink="http://www.w3.org/1999/xlink" width="28px" height="30px" xmlns="http://www.w3.org/2000/svg">
  <g transform="matrix(1 0 0 1 -1433 -69 )">
    <path d="M 26.9444359653172 12.2553872460938  C 25.253728811553 6.59539189453125  20.2570076953125 2.84256890625  14.7295843590199 2.49687559570312  L 14.7295843590199 1.2635122265625  C 14.7295843590199 0.621928916015625  14.2133821774384 0.100459365234375  13.5782794773911 0.100459365234375  C 12.9431767773438 0.100459365234375  12.4269746247633 0.621928916015625  12.4269746247633 1.2635122265625  L 12.4269746247633 2.55253807617187  C 11.6062711422822 2.64335581054688  10.782667681108 2.81034325195313  9.96486420632102 3.06228922851562  C 2.77283381451231 5.25656279296875  -1.31038345703125 12.9526330664062  0.861725727982956 20.2180515234375  C 1.04732651041667 20.8332684082031  1.68822922585227 21.17896171875  2.29723179865057 20.9943966210937  C 2.90623437144887 20.8098315527344  3.25133583806818 20.1594594140625  3.06573505563447 19.5442425585938  C 1.25902742009943 13.5063282421875  4.65204175840436 7.11100224609375  10.6289670123106 5.28878841796875  C 16.6058922662169 3.46657458984375  22.9366190388258 6.89128192382812  24.7404266666667 12.9291962109375  C 26.5471343022017 18.9671104980469  23.1541199638968 25.3624365234375  17.1771946809896 27.1846503515625  C 12.8706764689867 28.50004265625  8.20165674419981 27.11433984375  5.28424442175663 23.6544772558594  C 4.87244269116951 23.165233359375  4.1445395999053 23.1066412792969  3.66023756096118 23.5226450683594  C 3.17593552201705 23.9386488574219  3.11793528113163 24.67397953125  3.52973701171875 25.1632234277344  C 6.16584815281723 28.2803223339844  9.97646426609848 30  13.9059808688447 30  C 15.2196864133523 30  16.5478920253314 29.8066461328125  17.8441974946733 29.4111495410156  C 25.036227886482 27.2139463769531  29.1165451213305 19.5178761035156  26.9444359653172 12.2553872460938  Z " fill-rule="nonzero" fill="#d9001b" stroke="none" transform="matrix(1 0 0 1 1433 69 )" />
  </g>
</svg>