<?xml version="1.0" encoding="utf-8"?>
<svg version="1.1" xmlns:xlink="http://www.w3.org/1999/xlink" width="12px" height="12px" viewBox="126 2406.5  12 12" xmlns="http://www.w3.org/2000/svg">
  <path d="M 132 2406.5  C 135.36 2406.5  138 2409.14  138 2412.5  C 138 2415.86  135.36 2418.5  132 2418.5  C 128.64 2418.5  126 2415.86  126 2412.5  C 126 2409.14  128.64 2406.5  132 2406.5  Z " fill-rule="nonzero" fill="#ffffff" stroke="none" />
  <path d="M 132 2407  C 135.08 2407  137.5 2409.42  137.5 2412.5  C 137.5 2415.58  135.08 2418  132 2418  C 128.92 2418  126.5 2415.58  126.5 2412.5  C 126.5 2409.42  128.92 2407  132 2407  Z " stroke-width="1" stroke="#797979" fill="none" />
  <path d="M 132 2415.5  C 130.32 2415.5  129 2414.18  129 2412.5  C 129 2410.82  130.32 2409.5  132 2409.5  C 133.68 2409.5  135 2410.82  135 2412.5  C 135 2414.18  133.68 2415.5  132 2415.5  " fill-rule="nonzero" fill="#797979" stroke="none" />
</svg>