<?xml version="1.0" encoding="utf-8"?>
<svg version="1.1" xmlns:xlink="http://www.w3.org/1999/xlink" width="20px" height="20px" xmlns="http://www.w3.org/2000/svg">
  <g transform="matrix(1 0 0 1 -1194 -32 )">
    <path d="M 14.6875 7.99107142857143  L 19.375 7.99107142857143  L 19.375 3.30357142857143  L 17.8462053571429 4.83236607142857  C 16.1124377363564 2.20552692249278  13.1755420191751 0.624760097073747  10.028125 0.624330357142857  C 4.85044642857143 0.624330357142857  0.652455357142857 4.82165178571429  0.652455357142857 10  C 0.652455357142857 15.1783482142857  4.85044642857143 19.3756696428571  10.028125 19.3756696428571  C 13.8449927952964 19.3764301265641  17.2813830836665 17.0634343822188  18.7174107142857 13.5270089285714  C 18.7564178641311 13.4309813603474  18.7764744450612 13.3283129069502  18.7764744450612 13.2246651785714  C 18.7764744450612 12.7809752034945  18.4167926536484 12.4212934120816  17.9731026785714 12.4212934120816  C 17.646164160519 12.4212934120816  17.3518358321179 12.6194193646438  17.2287946428571 12.9223214285714  C 16.0383657166694 15.8524952477875  13.1908832093201 17.7689121459264  10.028125 17.7685267857143  C 5.73772321428572 17.7685267857143  2.25959821428571 14.2904017857143  2.25959821428571 10  C 2.25959821428571 5.70959821428572  5.73772321428572 2.23147321428571  10.028125 2.23147321428571  C 12.7997767857143 2.23147321428571  15.3002232142857 3.69799107142857  16.6830357142857 5.99486607142857  L 14.6875 7.99107142857143  Z " fill-rule="nonzero" fill="#555555" stroke="none" transform="matrix(1 0 0 1 1194 32 )" />
  </g>
</svg>