<?xml version="1.0" encoding="utf-8"?>
<svg version="1.1" xmlns:xlink="http://www.w3.org/1999/xlink" width="20px" height="20px" xmlns="http://www.w3.org/2000/svg">
  <g transform="matrix(1 0 0 1 -29 -474 )">
    <path d="M 2.545 19.99  L 2.545 20  C 1.365 20  0.405 19.04  0.405 17.86  L 0.405 2.14  C 0.405 0.96  1.365 0  2.545 0  L 14.685 0  C 15.875 0  16.835 0.96  16.835 2.14  C 16.835 3.32  16.515 2.85  16.125 2.85  C 15.735 2.85  15.415 2.53  15.415 2.14  C 15.415 1.75  15.095 1.43  14.705 1.43  L 2.545 1.43  C 2.155 1.43  1.835 1.75  2 2.14  L 2 17.85  C 1.835 18.24  2.155 18.56  2.545 18.56  L 11.105 18.56  L 11.105 16.42  C 11.105 15.24  12.075 14.28  13.255 14.28  L 15.395 14.3  L 15.395 11.64  C 15.395 11.25  15.715 10.93  16.105 10.93  C 16.495 10.93  16.815 11.25  16.815 11.64  L 16.815 15.01  C 16.815 15.12  16.785 15.22  16.745 15.32  C 16.745 15.52  16.665 15.71  16.515 15.85  L 12.485 19.71  C 12.395 19.8  12.285 19.86  12.155 19.89  C 12.045 19.95  11.925 19.99  11.795 19.99  L 2.545 19.99  Z M 12.555 16.43  L 12.545 16.43  L 12.545 17.71  L 14.605 15.73  L 13.265 15.73  C 12.875 15.72  12.555 16.04  12.555 16.43  Z M 5.475 15.52  L 5.505 15.53  C 5.355 15.35  5.305 15.1  5.375 14.88  L 6.065 12.52  C 6.105 12.39  6.185 12.27  6.285 12.18  L 16.055 3.87  C 16.945 3.11  18.285 3.21  19.065 4.09  C 19.835 4.99  19.735 6.33  18.855 7.1  L 9.075 15.41  C 8.965 15.51  8.815 15.57  8.665 15.58  L 6.095 15.78  L 6.035 15.78  C 5.825 15.78  5.615 15.69  5.475 15.52  Z M 16.995 4.96  L 16.985 4.96  L 7.375 13.13  L 7.035 14.29  L 8.335 14.19  L 17.925 6.04  C 18.215 5.79  18.255 5.34  17.995 5.05  C 17.735 4.76  17.995 5.04  17.995 5.04  C 17.735 4.75  17.295 4.71  16.995 4.96  Z M 7.555 9.29  L 4.695 9.29  C 4.305 9.29  3.985 8.97  3.985 8.58  C 3.985 8.19  4.305 7.87  4.695 7.87  L 7.555 7.87  C 7.945 7.87  8.265 8.19  8.265 8.58  C 8.265 8.97  7.945 9.29  7.555 9.29  Z M 9.695 5.71  L 4.695 5.71  C 4.305 5.71  3.985 5.39  3.985 5  C 3.985 4.61  4.305 4.29  4.695 4.29  L 9.695 4.29  C 10.085 4.29  10.405 4.61  10.405 5  C 10.405 5.39  10.085 5.71  9.695 5.71  Z " fill-rule="nonzero" fill="#aaaaaa" stroke="none" transform="matrix(1 0 0 1 29 474 )" />
  </g>
</svg>