<?xml version="1.0" encoding="utf-8"?>
<svg version="1.1" xmlns:xlink="http://www.w3.org/1999/xlink" width="19px" height="18px" xmlns="http://www.w3.org/2000/svg">
  <g transform="matrix(1 0 0 1 -600 -715 )">
    <path d="M 5.8721875 15.0515625  L 9.1525 13.329375  C 9.42544537615877 13.1860133499138  9.75142962384123 13.1860133499138  10.024375 13.329375  L 13.30375 15.0515625  L 12.679375 11.4  C 12.6276774465229 11.0961628055345  12.7286202574027 10.7863244554729  12.949375 10.57125  L 15.600625 7.98375  L 11.935 7.449375  C 11.6296330682467 7.40503063226507  11.3656416939961 7.21326000581741  11.2290625 6.9365625  L 9.5884375 3.6159375  L 7.946875 6.9365625  C 7.81047830849647 7.21301226185384  7.54689372718919 7.40474200384198  7.241875 7.449375  L 3.57625 7.98375  L 6.2275 10.57125  C 6.44791415712982 10.7865077900402  6.54849827990262 11.0963209068735  6.4965625 11.4  L 5.8721875 15.0515625  Z M 5.065 17.5940625  C 4.93045576676558 17.664800917123  4.78072860521233 17.701762785398  4.62872178183354 17.701762785398  C 4.11095482886718 17.701762785398  3.69122178183354 17.2820297383644  3.69122178183354 16.764262785398  C 3.69122178183354 16.7112017164425  3.69572653052169 16.658236429862  3.7046875 16.6059375  L 4.5653125 11.5696875  L 0.909062499999999 8.0015625  C 0.727866898759212 7.82508915125646  0.625665758408104 7.58288826656881  0.625665758408104 7.32995608450064  C 0.625665758408104 6.86423197275923  0.967547686753981 6.46911677837182  1.4284375 6.4021875  L 6.4834375 5.6653125  L 8.7475 1.0846875  C 8.90552127808305 0.764931085417996  9.23129678727607 0.562541000374606  9.58796875 0.562541000374606  C 9.94464071272393 0.562541000374606  10.2704162219169 0.764931085417995  10.4284375 1.0846875  L 12.6925 5.6653125  L 17.7475 6.4021875  C 18.208758390695 6.46875603424196  18.5510879416604 6.8640370434834  18.5510879416604 7.33007424450671  C 18.5510879416604 7.5829476698932  18.4489341376249 7.82509742795809  18.2678125 8.0015625  L 14.6115625 11.5696875  L 15.47125 16.6059375  C 15.48014953563 16.6580610942368  15.4846232346521 16.710844187451  15.4846232346521 16.763722073288  C 15.4846232346521 17.2814890262544  15.0648901876185 17.701222073288  14.5471232346521 17.701222073288  C 14.3955098928388 17.701222073288  14.2461583993989 17.6644512353322  14.111875 17.5940625  L 9.5884375 15.2184375  L 5.0640625 17.5940625  Z " fill-rule="nonzero" fill="#7f7f7f" stroke="none" transform="matrix(1 0 0 1 600 715 )" />
  </g>
</svg>