<?xml version="1.0" encoding="utf-8"?>
<svg version="1.1" xmlns:xlink="http://www.w3.org/1999/xlink" width="18px" height="21px" xmlns="http://www.w3.org/2000/svg">
  <g transform="matrix(1 0 0 1 -1445 -69 )">
    <path d="M 17.1763548046875 8.2550305020729  C 17.7183315820312 7.90213524903667  17.8823894238281 7.169429046666  17.5366961425781 6.61317045585983  C 15.8638921289062 3.90963404752329  13.5231383496094 1.67263709279605  10.7722399804687 0.144421277063283  C 10.2068263769531 -0.169595688172167  9.5007917578125 0.0457302411003334  9.1961129296875 0.622923292267905  C 8.8914341015625 1.20011634343548  9.09943599609375 1.92086001411805  9.66192 2.23188634643147  C 12.0671250585937 3.56571072316037  14.1090592089844 5.52158773460888  15.5709316992188 7.88419145150452  C 15.7935816210937 8.2430679703848  16.1685709570312 8.43745940938867  16.5552787207031 8.43745940938867  C 16.7691398144531 8.43745940938867  16.9830009375 8.3776466612265  17.1763548046875 8.2550305020729  Z M 2.87695661132813 11.2636119768788  C 2.8798862109375 10.6086623501097  2.35841666015625 10.0763288525869  1.71683334960937 10.0763288226797  C 1.0752500390625 10.0763288226797  0.553780488281249 10.6086623202025  0.553780488281249 11.2636119768788  L 0.553780488281249 16.5271341740369  C 0.562569287109374 16.8471324051164  0.697331103515624 17.1342336142392  0.905332998046875 17.3405876148383  L 3.222649921875 20.0351521244088  C 3.45115904296875 20.3013188731702  3.77341552734375 20.4388881969339  4.09567198242188 20.4388881969339  C 4.36812518554688 20.4388881969339  4.640578359375 20.340197160971  4.86322828125 20.1428150890451  C 5.34661297851563 19.7091726274853  5.39348663085938 18.9615132305972  4.96869404296875 18.4680580208753  L 2.87695661132813 16.0366696271442  L 2.87695661132813 11.2636119768788  Z " fill-rule="nonzero" fill="#d9001b" stroke="none" transform="matrix(1 0 0 1 1445 69 )" />
  </g>
</svg>