<?xml version="1.0" encoding="utf-8"?>
<svg version="1.1" xmlns:xlink="http://www.w3.org/1999/xlink" width="18px" height="18px" xmlns="http://www.w3.org/2000/svg">
  <g transform="matrix(1 0 0 1 613 519 )">
    <path d="M 16.869140625 17  C 17.6328125 17.125  17.96484375 16.673828125  17.60546875 16.0078125  L 9.654296875 1.388671875  C 9.294921875 0.72265625  8.705078125 0.6953125  8.345703125 1.361328125  L 0.39453125 16.0234375  C 0.03515625 16.6875  0.3671875 17.125  1.130859375 17  L 16.869140625 17  Z M 9.916015625 14.626953125  C 9.916015625 15.125  9.505859375 15.53125  9 15.53125  C 8.494140625 15.53125  8.083984375 15.125  8.083984375 14.626953125  C 8.083984375 14.12890625  8.4921875 13.72265625  9 13.72265625  C 9.505859375 13.72265625  9.916015625 14.12890625  9.916015625 14.626953125  Z M 10.544921875 6.935546875  L 9.76953125 11.64453125  C 9.666015625 12.263671875  9.3203125 12.771484375  9 12.771484375  C 8.681640625 12.771484375  8.3359375 12.263671875  8.23046875 11.64453125  L 7.453125 6.935546875  C 7.349609375 6.318359375  7.78515625 5.701171875  8.419921875 5.701171875  L 9.578125 5.701171875  C 10.21484375 5.701171875  10.650390625 6.31640625  10.544921875 6.935546875  Z " fill-rule="nonzero" fill="#d9001b" stroke="none" transform="matrix(1 0 0 1 -613 -519 )" />
  </g>
</svg>