<?xml version="1.0" encoding="utf-8"?>
<svg version="1.1" xmlns:xlink="http://www.w3.org/1999/xlink" width="12px" height="12px" viewBox="402 133.5  12 12" xmlns="http://www.w3.org/2000/svg">
  <path d="M 408 133.5  C 411.36 133.5  414 136.14  414 139.5  C 414 142.86  411.36 145.5  408 145.5  C 404.64 145.5  402 142.86  402 139.5  C 402 136.14  404.64 133.5  408 133.5  Z " fill-rule="nonzero" fill="#ffffff" stroke="none" />
  <path d="M 408 134  C 411.08 134  413.5 136.42  413.5 139.5  C 413.5 142.58  411.08 145  408 145  C 404.92 145  402.5 142.58  402.5 139.5  C 402.5 136.42  404.92 134  408 134  Z " stroke-width="1" stroke="#797979" fill="none" />
  <path d="M 408 142.5  C 406.32 142.5  405 141.18  405 139.5  C 405 137.82  406.32 136.5  408 136.5  C 409.68 136.5  411 137.82  411 139.5  C 411 141.18  409.68 142.5  408 142.5  " fill-rule="nonzero" fill="#797979" stroke="none" />
</svg>