<?xml version="1.0" encoding="utf-8"?>
<svg version="1.1" xmlns:xlink="http://www.w3.org/1999/xlink" width="20px" height="20px" xmlns="http://www.w3.org/2000/svg">
  <g transform="matrix(1 0 0 1 -318 -333 )">
    <path d="M 20 10  C 20 4.4771484375  15.5228515625 0  10 0  C 4.4771484375 0  0 4.4771484375  0 10  C 0 15.5228515625  4.4771484375 20  10 20  C 15.5228515625 20  20 15.5228515625  20 10  Z M 10 4.140625  C 10.474609375 4.140625  10.859375 4.525390625  10.859375 5  L 10.859375 11.630703125  C 10.859375 12.10533203125  10.474609375 12.490078125  10 12.490078125  C 9.525390625 12.490078125  9.140625 12.10533203125  9.140625 11.630703125  L 9.140625 5  C 9.140625 4.525390625  9.525390625 4.140625  10 4.140625  Z M 8.75 14.609375  C 8.75 13.9190234375  9.3096484375 13.359375  10 13.359375  C 10.6903515625 13.359375  11.25 13.9190234375  11.25 14.609375  C 11.25 15.2997265625  10.6903515625 15.859375  10 15.859375  C 9.3096484375 15.859375  8.75 15.2997265625  8.75 14.609375  Z " fill-rule="nonzero" fill="#d9001b" stroke="none" transform="matrix(1 0 0 1 318 333 )" />
  </g>
</svg>