<?xml version="1.0" encoding="utf-8"?>
<svg version="1.1" xmlns:xlink="http://www.w3.org/1999/xlink" width="18px" height="18px" xmlns="http://www.w3.org/2000/svg">
  <g transform="matrix(1 0 0 1 -319 -278 )">
    <path d="M 18 9  C 18 4  13.9375 0  9 0  C 4.0625 0  0 4  0 9  C 0 14  4 18  9 18  C 14 18  18 14  18 9  Z M 17.0625 9  C 17.0625 13.4375  13.4375 17.0625  9 17.0625  C 4.5625 17.0625  0.9375 13.4375  0.9375 9  C 0.9375 4.5625  4.5625 0.937499999999999  9 0.937499999999999  C 13.4375 0.937499999999999  17.0625 4.5625  17.0625 9  Z " fill-rule="nonzero" fill="#03b615" stroke="none" transform="matrix(1 0 0 1 319 278 )" />
  </g>
</svg>