<?xml version="1.0" encoding="utf-8"?>
<svg version="1.1" xmlns:xlink="http://www.w3.org/1999/xlink" width="16px" height="15px" xmlns="http://www.w3.org/2000/svg">
  <g transform="matrix(1 0 0 1 -434 -230 )">
    <path d="M 12.8033971435547 12.8033992382812  C 11.3999994339148 14.2144526613043  9.490339558299 15.0052931032315  7.50022290527344 14.9995833398437  C 5.51004603663288 15.0051828839823  3.60037761647265 14.2141888645752  2.19704866699219 12.802982578125  C 0.785960478963503 11.3995744821553  -0.0050121652439468 9.48995766737102  0.0004479052734375 7.49980833984375  C -0.00512355963616294 5.50951469269402  0.785857627043578 3.59972721760113  2.19704866699219 2.19621744140625  C 3.6005518763336 0.785321464770158  5.51014295638722 -0.00549049237780288  7.50022290527344 3.33251953125E-05  C 9.49030285415966 -0.00549049237780244  11.3998939342133 0.785321464770157  12.8033971435547 2.19621744140625  C 14.2146275571586 3.5997008330382  15.0056158741749 5.50950551126276  14.9999979199219 7.49980833984375  C 15.0056158741749 9.49011116842474  14.2146275571586 11.3999158466493  12.8033971435547 12.8033992382812  Z M 7.50022290527344 8.25228577148437  L 9.75682187988281 10.5151345458984  C 9.85569027817768 10.6156199458667  9.99084186187168 10.6720832728046  10.1318106298828 10.6717965087891  C 10.271133493512 10.6720276532198  10.4048344547421 10.6168685144616  10.5034661425781 10.5184677832031  C 10.6030912481878 10.4199416219999  10.659196718893 10.2856785296199  10.6592947998047 10.1455623046875  C 10.6604622678396 10.0050769598718  10.6052284527869 9.86999425318934  10.5059660742188 9.7705735546875  L 8.24436725097656 7.50230825683594  L 10.5126325341797 5.22654320800781  C 10.6119014669339 5.12715947645811  10.6670101850778 4.99201548181542  10.6655446142578 4.85155445800781  C 10.6651515381139 4.71141532224664  10.6089210429254 4.57721186557628  10.5092993115234 4.47864897949219  C 10.410831322868 4.38030835598685  10.2772244148546 4.32527610580272  10.1380604443359 4.32573689941406  C 9.99718957907246 4.3255277012495  9.8621162501817 4.38180825143634  9.76307169433594 4.48198220214844  L 7.50022290527344 6.75066414550781  L 5.24445725097656 4.48781537109375  C 5.14542356516536 4.3876756492013  5.01030678981253 4.33152712295347  4.86946850097656 4.33198671386719  C 4.72999230348578 4.3315988696669  4.5961041087583 4.38677339699377  4.497396328125 4.48531543945312  C 4.397876758051 4.5837765383786  4.34165479181086 4.71780970458789  4.34115101074219 4.85780427246094  C 4.33968543992219 4.99826529626854  4.39479415806608 5.13340929091123  4.49406309082031 5.23279302246094  L 6.75691187988281 7.50230825683594  L 4.48864659667969 9.7705735546875  C 4.38938421274191 9.86999425077352  4.33415039229009 10.0050769577552  4.33531785644531 10.1455623046875  C 4.33546226478504 10.285669218444  4.39156058624637 10.4199152023392  4.49114651367188 10.5184677832031  C 4.58987055449381 10.6169353042896  4.72378432851876 10.6719704163764  4.86321868652344 10.6713798632813  C 5.00417363132516 10.6720127347446  5.13940451653054 10.6156665308148  5.23820743652344 10.5151345458984  L 7.50063956542969 8.25228577148437  Z " fill-rule="nonzero" fill="#666666" stroke="none" transform="matrix(1 0 0 1 434 230 )" />
  </g>
</svg>