<?xml version="1.0" encoding="utf-8"?>
<svg version="1.1" xmlns:xlink="http://www.w3.org/1999/xlink" width="12px" height="12px" viewBox="288 2037.5  12 12" xmlns="http://www.w3.org/2000/svg">
  <path d="M 294 2037.5  C 297.36 2037.5  300 2040.14  300 2043.5  C 300 2046.86  297.36 2049.5  294 2049.5  C 290.64 2049.5  288 2046.86  288 2043.5  C 288 2040.14  290.64 2037.5  294 2037.5  Z " fill-rule="nonzero" fill="#ffffff" stroke="none" />
  <path d="M 294 2038  C 297.08 2038  299.5 2040.42  299.5 2043.5  C 299.5 2046.58  297.08 2049  294 2049  C 290.92 2049  288.5 2046.58  288.5 2043.5  C 288.5 2040.42  290.92 2038  294 2038  Z " stroke-width="1" stroke="#797979" fill="none" />
  <path d="M 294 2046.5  C 292.32 2046.5  291 2045.18  291 2043.5  C 291 2041.82  292.32 2040.5  294 2040.5  C 295.68 2040.5  297 2041.82  297 2043.5  C 297 2045.18  295.68 2046.5  294 2046.5  " fill-rule="nonzero" fill="#797979" stroke="none" />
</svg>