<?xml version="1.0" encoding="utf-8"?>
<svg version="1.1" xmlns:xlink="http://www.w3.org/1999/xlink" width="23px" height="23px" xmlns="http://www.w3.org/2000/svg">
  <g transform="matrix(1 0 0 1 -143 -3137 )">
    <path d="M 2.53134765625 7.25608607700893  C 2.53134765625 7.75832868303571  2.12416294642857 8.16527273995536  1.62216099330357 8.16527273995536  C 1.11991838727679 8.16527273995536  0.712974330357143 7.75808803013393  0.712974330357143 7.25608607700893  L 0.712974330357143 5.2485595703125  C 0.712974330357143 2.74793526785714  2.74745396205357 0.713455636160714  5.24807826450893 0.713455636160714  L 7.25560477120536 0.713455636160714  C 7.75784737723214 0.713455636160714  8.16479143415178 1.12064034598214  8.16479143415178 1.62264229910714  C 8.16479143415178 2.12464425223214  7.75760672433036 2.53182896205357  7.25560477120536 2.53182896205357  L 5.24807826450893 2.53182896205357  C 3.75001395089286 2.53182896205357  2.53134765625 3.75049525669643  2.53134765625 5.2485595703125  L 2.53134765625 7.25608607700893  Z M 22.2899135044643 17.7511997767857  C 22.2896728515625 20.2518240792411  20.2554338727679 22.2863037109375  17.7548095703125 22.2863037109375  L 15.7364536830357 22.2863037109375  C 15.2342110770089 22.2863037109375  14.8272670200893 21.8793596540179  14.8272670200893 21.3771170479911  C 14.8272670200893 20.8748744419643  15.2344517299107 20.4679303850446  15.7364536830357 20.4679303850446  L 17.7548095703125 20.4679303850446  C 19.2528738839286 20.4679303850446  20.4715401785714 19.2492640904018  20.4715401785714 17.7511997767857  L 20.4715401785714 15.7448765345982  C 20.4715401785714 15.2426339285714  20.8784842354911 14.8356898716518  21.3807268415179 14.8356898716518  C 21.8829694475446 14.8356898716518  22.2899135044643 15.2428745814732  22.2899135044643 15.7448765345982  L 22.2899135044643 17.7511997767857  Z M 8.16094098772322 21.3771170479911  C 8.16094098772322 21.8793596540179  7.75375627790179 22.2863037109375  7.25175432477679 22.2863037109375  L 5.24543108258929 22.2863037109375  C 2.74480678013393 22.2863037109375  0.7103271484375 20.2518240792411  0.7103271484375 17.7511997767857  L 0.7103271484375 15.7448765345982  C 0.7103271484375 15.2426339285714  1.11751185825893 14.8356898716518  1.61951381138393 14.8356898716518  C 2.12151576450893 14.8356898716518  2.52870047433036 15.2428745814732  2.52870047433036 15.7448765345982  L 2.52870047433036 17.7511997767857  C 2.52870047433036 19.2492640904018  3.74736676897322 20.4679303850446  5.24543108258929 20.4679303850446  L 7.25175432477679 20.4679303850446  C 7.75399693080357 20.4679303850446  8.16094098772322 20.8748744419643  8.16094098772322 21.3771170479911  Z M 22.2896728515625 7.26041782924107  C 22.2896728515625 7.76241978236607  21.8827287946429 8.1696044921875  21.3804861886161 8.1696044921875  C 20.8782435825893 8.1696044921875  20.4712995256696 7.76241978236607  20.4712995256696 7.26041782924107  L 20.4712995256696 5.25409458705357  C 20.4712995256696 3.7560302734375  19.2526332310268 2.53736397879464  17.7545689174107 2.53736397879464  L 15.7362130301339 2.53736397879464  C 15.2339704241071 2.53736397879464  14.8270263671875 2.13017926897322  14.8270263671875 1.62817731584822  C 14.8270263671875 1.12617536272322  15.2342110770089 0.718990652901787  15.7362130301339 0.718990652901787  L 17.7545689174107 0.718990652901787  C 20.2551932198661 0.718990652901787  22.2896728515625 2.75347028459822  22.2896728515625 5.25409458705357  L 22.2896728515625 7.26041782924107  Z " fill-rule="nonzero" fill="#8080ff" stroke="none" transform="matrix(1 0 0 1 143 3137 )" />
  </g>
</svg>