<?xml version="1.0" encoding="utf-8"?>
<svg version="1.1" xmlns:xlink="http://www.w3.org/1999/xlink" width="15px" height="15px" xmlns="http://www.w3.org/2000/svg">
  <g transform="matrix(1 0 0 1 -155 -1034 )">
    <path d="M 14.25 7.5  C 14.25 3.75  11.203125 0.75  7.5 0.75  C 3.796875 0.75  0.75 3.75  0.75 7.5  C 0.75 11.25  3.75 14.25  7.5 14.25  C 11.25 14.25  14.25 11.25  14.25 7.5  Z M 13.546875 7.5  C 13.546875 10.828125  10.828125 13.546875  7.5 13.546875  C 4.171875 13.546875  1.453125 10.828125  1.453125 7.5  C 1.453125 4.171875  4.171875 1.453125  7.5 1.453125  C 10.828125 1.453125  13.546875 4.171875  13.546875 7.5  Z " fill-rule="nonzero" fill="#70b603" stroke="none" transform="matrix(1 0 0 1 155 1034 )" />
  </g>
</svg>