<?xml version="1.0" encoding="utf-8"?>
<svg version="1.1" xmlns:xlink="http://www.w3.org/1999/xlink" width="13px" height="11px" xmlns="http://www.w3.org/2000/svg">
  <g transform="matrix(1 0 0 1 -378 -41 )">
    <path d="M 2.72812500488281 7.18124999511719  C 3.97187500976563 6.43999999023437  5.339375 6.05437499511719  7.064375 5.970625  L 8.375 5.906875  L 8.375 7.9375  L 10.9824999951172 5.33000000488281  L 8.375 2.72249999511719  L 8.375 4.61249999511719  L 7.31124999511719 4.7725  C 5.03312499511719 5.115625  3.62375 5.84999999511719  2.72812500488281 7.18124999511719  Z M 7.12500000488281 9.59624999511719  L 7.12500000488281 7.219375  C 6.72375000488281 7.23875000488281  6.348125 7.2775  5.99499999511719 7.33375  L 5.87499999511719 7.35374999511719  C 3.87249999511719 7.69999999023437  2.58187499023437 8.63062499511719  1.32000000488281 9.93374999511719  C 0.936874999999999 10.3293749951172  0.559999999999999 10.8074999951172  0.559999999999999 10.8074999951172  C 0.342499999999999 11.0737499951172  0.208125004882812 11.0131249902344  0.261874999999999 10.673125  C 0.261874999999999 10.673125  0.326250004882812 10.2131249951172  0.433125004882812 9.709375  C 1.12312500488281 6.45312500488281  2.67062499511719 4.20625  7.12500000488281 3.53624999511719  L 7.12500000488281 1.06250000488281  C 7.1252730819892 0.752033150461842  7.37703281278003 0.500494762409229  7.68749978729609 0.500494762409229  C 7.83656289039288 0.500494762409229  7.97953096741945 0.559662021033706  8.08500000488281 0.665000004882812  L 12.3525000048828 4.931875  C 12.4580289485456 5.03736948823198  12.5173173890932 5.18047140077033  12.5173173890932 5.32968750244141  C 12.5173173890932 5.47890360411248  12.4580289485456 5.62200551665084  12.3525000048828 5.72750000488281  L 8.08500000488281 9.994375  C 7.97953098399426 10.0997128600742  7.83656299375189 10.1588800401713  7.68749998985018 10.1588800401713  C 7.37683981807035 10.1588800401713  7.12499998985018 9.90704021195112  7.12499998985018 9.59638004017129  Z " fill-rule="nonzero" fill="#027db4" stroke="none" transform="matrix(1 0 0 1 378 41 )" />
  </g>
</svg>