<?xml version="1.0" encoding="utf-8"?>
<svg version="1.1" xmlns:xlink="http://www.w3.org/1999/xlink" width="17px" height="14px" xmlns="http://www.w3.org/2000/svg">
  <g transform="matrix(1 0 0 1 -531 -5586 )">
    <path d="M 3.56754808330829 9.13977272105824  C 5.19399039738582 8.19636362393466  6.98225961538462 7.70556817560369  9.23802884615385 7.59897727272727  L 10.9519230769231 7.51784090909091  L 10.9519230769231 10.1022727272727  L 14.3617307628456 6.78363636985085  L 10.9519230769231 3.46499999378551  L 10.9519230769231 5.87045453924006  L 9.56086537823017 6.07409090909091  C 6.58177883976863 6.51079545454545  4.73875 7.44545453924006  3.56754808330829 9.13977272105824  Z M 9.31730769869291 12.2134090846946  L 9.31730769869291 9.18829545454545  C 8.79259616023137 9.21295455166903  8.30139423076923 9.26227272727273  7.83961537823017 9.33386363636364  L 7.68269230130709 9.35931817560369  C 5.06403845515324 9.79999998757102  3.37629806415264 10.9844318119673  1.72615385253906 12.6429545392401  C 1.22514423076923 13.1464772665128  0.732307692307691 13.7549999937855  0.732307692307691 13.7549999937855  C 0.447884615384615 14.0938636301491  0.272163467923677 14.0167045330256  0.342451923076922 13.5839772727273  C 0.342451923076922 13.5839772727273  0.426634621769831 12.9985227210582  0.566394237154446 12.3573863636364  C 1.46870192946214 8.21306818803267  3.49235576284555 5.35340909090909  9.31730769869291 4.50068181196733  L 9.31730769869291 1.35227273348722  C 9.31766479952434 0.957133100587799  9.64688906286619 0.636993333975383  10.0528843372334 0.636993333975383  C 10.2478130105138 0.636993333975383  10.434771265087 0.712297117679262  10.5726923140775 0.846363642578125  L 16.1532692371544 6.27693181818182  C 16.2912686250212 6.41119753047707  16.3687996626603 6.59332723734406  16.3687996626603 6.78323863947088  C 16.3687996626603 6.9731500415977  16.2912686250212 7.1552797484647  16.1532692371544 7.28954546075994  L 10.5726923140775 12.7201136363636  C 10.4347712867617 12.8541800037308  10.2478131456755 12.9294836874907  10.0528846021118 12.9294836874907  C 9.64663668516892 12.9294836874907  9.31730767903484 12.608960269756  9.31730767903484 12.2135745965816  Z " fill-rule="nonzero" fill="#027db4" stroke="none" transform="matrix(1 0 0 1 531 5586 )" />
  </g>
</svg>